<mxfile host="app.diagrams.net" modified="2024-07-07T07:23:23.022Z" agent="Mozilla/5.0 (Macintosh; Intel Mac OS X 10_15_7) AppleWebKit/537.36 (KHTML, like Gecko) Chrome/120.0.0.0 Whale/3.24.223.18 Safari/537.36" etag="KPdl5iwncSZwE1_ct2Wv" version="24.6.4" type="github">
  <diagram name="페이지-1" id="q4a4fRpmrBBrFd70YqiL">
    <mxGraphModel dx="524" dy="997" grid="1" gridSize="10" guides="1" tooltips="1" connect="1" arrows="1" fold="1" page="1" pageScale="1" pageWidth="1169" pageHeight="827" math="0" shadow="0">
      <root>
        <mxCell id="0" />
        <mxCell id="1" parent="0" />
        <mxCell id="LJNIjv_O-m_A1Em3gIbu-1" value="" style="endArrow=classic;html=1;rounded=0;endFill=1;strokeWidth=3;" parent="1" edge="1">
          <mxGeometry width="50" height="50" relative="1" as="geometry">
            <mxPoint x="80" y="280" as="sourcePoint" />
            <mxPoint x="580" y="280" as="targetPoint" />
          </mxGeometry>
        </mxCell>
        <mxCell id="LJNIjv_O-m_A1Em3gIbu-3" value="&lt;b&gt;VIEW&lt;/b&gt;" style="text;html=1;align=center;verticalAlign=middle;whiteSpace=wrap;rounded=0;" parent="1" vertex="1">
          <mxGeometry x="20" y="280" width="60" height="30" as="geometry" />
        </mxCell>
        <mxCell id="LJNIjv_O-m_A1Em3gIbu-4" value="&lt;b&gt;CLICK&lt;/b&gt;" style="text;html=1;align=center;verticalAlign=middle;whiteSpace=wrap;rounded=0;" parent="1" vertex="1">
          <mxGeometry x="20" y="590" width="60" height="30" as="geometry" />
        </mxCell>
        <mxCell id="LJNIjv_O-m_A1Em3gIbu-12" value="1" style="text;html=1;align=center;verticalAlign=middle;whiteSpace=wrap;rounded=0;" parent="1" vertex="1">
          <mxGeometry x="110" y="280" width="20" height="30" as="geometry" />
        </mxCell>
        <mxCell id="LJNIjv_O-m_A1Em3gIbu-13" value="0" style="text;html=1;align=center;verticalAlign=middle;whiteSpace=wrap;rounded=0;" parent="1" vertex="1">
          <mxGeometry x="70" y="280" width="20" height="30" as="geometry" />
        </mxCell>
        <mxCell id="LJNIjv_O-m_A1Em3gIbu-14" value="2" style="text;html=1;align=center;verticalAlign=middle;whiteSpace=wrap;rounded=0;" parent="1" vertex="1">
          <mxGeometry x="150" y="280" width="20" height="30" as="geometry" />
        </mxCell>
        <mxCell id="LJNIjv_O-m_A1Em3gIbu-15" value="3" style="text;html=1;align=center;verticalAlign=middle;whiteSpace=wrap;rounded=0;" parent="1" vertex="1">
          <mxGeometry x="190" y="280" width="20" height="30" as="geometry" />
        </mxCell>
        <mxCell id="LJNIjv_O-m_A1Em3gIbu-16" value="4" style="text;html=1;align=center;verticalAlign=middle;whiteSpace=wrap;rounded=0;" parent="1" vertex="1">
          <mxGeometry x="230" y="280" width="20" height="30" as="geometry" />
        </mxCell>
        <mxCell id="LJNIjv_O-m_A1Em3gIbu-17" value="5" style="text;html=1;align=center;verticalAlign=middle;whiteSpace=wrap;rounded=0;" parent="1" vertex="1">
          <mxGeometry x="270" y="280" width="20" height="30" as="geometry" />
        </mxCell>
        <mxCell id="LJNIjv_O-m_A1Em3gIbu-18" value="6" style="text;html=1;align=center;verticalAlign=middle;whiteSpace=wrap;rounded=0;" parent="1" vertex="1">
          <mxGeometry x="310" y="280" width="20" height="30" as="geometry" />
        </mxCell>
        <mxCell id="LJNIjv_O-m_A1Em3gIbu-19" value="7" style="text;html=1;align=center;verticalAlign=middle;whiteSpace=wrap;rounded=0;" parent="1" vertex="1">
          <mxGeometry x="350" y="280" width="20" height="30" as="geometry" />
        </mxCell>
        <mxCell id="LJNIjv_O-m_A1Em3gIbu-20" value="8" style="text;html=1;align=center;verticalAlign=middle;whiteSpace=wrap;rounded=0;" parent="1" vertex="1">
          <mxGeometry x="390" y="280" width="20" height="30" as="geometry" />
        </mxCell>
        <mxCell id="LJNIjv_O-m_A1Em3gIbu-21" value="9" style="text;html=1;align=center;verticalAlign=middle;whiteSpace=wrap;rounded=0;" parent="1" vertex="1">
          <mxGeometry x="430" y="280" width="20" height="30" as="geometry" />
        </mxCell>
        <mxCell id="LJNIjv_O-m_A1Em3gIbu-22" value="10" style="text;html=1;align=center;verticalAlign=middle;whiteSpace=wrap;rounded=0;" parent="1" vertex="1">
          <mxGeometry x="470" y="280" width="20" height="30" as="geometry" />
        </mxCell>
        <mxCell id="LJNIjv_O-m_A1Em3gIbu-23" value="11" style="text;html=1;align=center;verticalAlign=middle;whiteSpace=wrap;rounded=0;" parent="1" vertex="1">
          <mxGeometry x="510" y="280" width="20" height="30" as="geometry" />
        </mxCell>
        <mxCell id="LJNIjv_O-m_A1Em3gIbu-24" value="12" style="text;html=1;align=center;verticalAlign=middle;whiteSpace=wrap;rounded=0;" parent="1" vertex="1">
          <mxGeometry x="550" y="280" width="20" height="30" as="geometry" />
        </mxCell>
        <mxCell id="LJNIjv_O-m_A1Em3gIbu-26" value="" style="endArrow=classic;html=1;rounded=0;endFill=1;strokeWidth=3;" parent="1" edge="1">
          <mxGeometry width="50" height="50" relative="1" as="geometry">
            <mxPoint x="80" y="590" as="sourcePoint" />
            <mxPoint x="580" y="590" as="targetPoint" />
          </mxGeometry>
        </mxCell>
        <mxCell id="LJNIjv_O-m_A1Em3gIbu-27" value="1" style="text;html=1;align=center;verticalAlign=middle;whiteSpace=wrap;rounded=0;" parent="1" vertex="1">
          <mxGeometry x="110" y="590" width="20" height="30" as="geometry" />
        </mxCell>
        <mxCell id="LJNIjv_O-m_A1Em3gIbu-28" value="0" style="text;html=1;align=center;verticalAlign=middle;whiteSpace=wrap;rounded=0;" parent="1" vertex="1">
          <mxGeometry x="70" y="590" width="20" height="30" as="geometry" />
        </mxCell>
        <mxCell id="LJNIjv_O-m_A1Em3gIbu-29" value="2" style="text;html=1;align=center;verticalAlign=middle;whiteSpace=wrap;rounded=0;" parent="1" vertex="1">
          <mxGeometry x="150" y="590" width="20" height="30" as="geometry" />
        </mxCell>
        <mxCell id="LJNIjv_O-m_A1Em3gIbu-30" value="3" style="text;html=1;align=center;verticalAlign=middle;whiteSpace=wrap;rounded=0;" parent="1" vertex="1">
          <mxGeometry x="190" y="590" width="20" height="30" as="geometry" />
        </mxCell>
        <mxCell id="LJNIjv_O-m_A1Em3gIbu-31" value="4" style="text;html=1;align=center;verticalAlign=middle;whiteSpace=wrap;rounded=0;" parent="1" vertex="1">
          <mxGeometry x="230" y="590" width="20" height="30" as="geometry" />
        </mxCell>
        <mxCell id="LJNIjv_O-m_A1Em3gIbu-32" value="5" style="text;html=1;align=center;verticalAlign=middle;whiteSpace=wrap;rounded=0;" parent="1" vertex="1">
          <mxGeometry x="270" y="590" width="20" height="30" as="geometry" />
        </mxCell>
        <mxCell id="LJNIjv_O-m_A1Em3gIbu-33" value="6" style="text;html=1;align=center;verticalAlign=middle;whiteSpace=wrap;rounded=0;" parent="1" vertex="1">
          <mxGeometry x="310" y="590" width="20" height="30" as="geometry" />
        </mxCell>
        <mxCell id="LJNIjv_O-m_A1Em3gIbu-34" value="7" style="text;html=1;align=center;verticalAlign=middle;whiteSpace=wrap;rounded=0;" parent="1" vertex="1">
          <mxGeometry x="350" y="590" width="20" height="30" as="geometry" />
        </mxCell>
        <mxCell id="LJNIjv_O-m_A1Em3gIbu-35" value="8" style="text;html=1;align=center;verticalAlign=middle;whiteSpace=wrap;rounded=0;" parent="1" vertex="1">
          <mxGeometry x="390" y="590" width="20" height="30" as="geometry" />
        </mxCell>
        <mxCell id="LJNIjv_O-m_A1Em3gIbu-36" value="9" style="text;html=1;align=center;verticalAlign=middle;whiteSpace=wrap;rounded=0;" parent="1" vertex="1">
          <mxGeometry x="430" y="590" width="20" height="30" as="geometry" />
        </mxCell>
        <mxCell id="LJNIjv_O-m_A1Em3gIbu-37" value="10" style="text;html=1;align=center;verticalAlign=middle;whiteSpace=wrap;rounded=0;" parent="1" vertex="1">
          <mxGeometry x="470" y="590" width="20" height="30" as="geometry" />
        </mxCell>
        <mxCell id="LJNIjv_O-m_A1Em3gIbu-38" value="11" style="text;html=1;align=center;verticalAlign=middle;whiteSpace=wrap;rounded=0;" parent="1" vertex="1">
          <mxGeometry x="510" y="590" width="20" height="30" as="geometry" />
        </mxCell>
        <mxCell id="LJNIjv_O-m_A1Em3gIbu-39" value="12" style="text;html=1;align=center;verticalAlign=middle;whiteSpace=wrap;rounded=0;" parent="1" vertex="1">
          <mxGeometry x="550" y="590" width="20" height="30" as="geometry" />
        </mxCell>
        <mxCell id="LJNIjv_O-m_A1Em3gIbu-40" value="A" style="ellipse;whiteSpace=wrap;html=1;aspect=fixed;fillColor=#f5f5f5;fontColor=#333333;strokeColor=#666666;" parent="1" vertex="1">
          <mxGeometry x="65" y="239" width="30" height="30" as="geometry" />
        </mxCell>
        <mxCell id="LJNIjv_O-m_A1Em3gIbu-41" value="A" style="ellipse;whiteSpace=wrap;html=1;aspect=fixed;fillColor=#f5f5f5;fontColor=#333333;strokeColor=#666666;" parent="1" vertex="1">
          <mxGeometry x="105" y="551" width="30" height="30" as="geometry" />
        </mxCell>
        <mxCell id="LJNIjv_O-m_A1Em3gIbu-42" value="B" style="ellipse;whiteSpace=wrap;html=1;aspect=fixed;fillColor=#dae8fc;strokeColor=#6c8ebf;" parent="1" vertex="1">
          <mxGeometry x="105" y="239" width="30" height="30" as="geometry" />
        </mxCell>
        <mxCell id="LJNIjv_O-m_A1Em3gIbu-43" value="B" style="ellipse;whiteSpace=wrap;html=1;aspect=fixed;fillColor=#dae8fc;strokeColor=#6c8ebf;" parent="1" vertex="1">
          <mxGeometry x="545" y="551" width="30" height="30" as="geometry" />
        </mxCell>
        <mxCell id="LJNIjv_O-m_A1Em3gIbu-44" value="C" style="ellipse;whiteSpace=wrap;html=1;aspect=fixed;fillColor=#d5e8d4;strokeColor=#82b366;" parent="1" vertex="1">
          <mxGeometry x="185" y="239" width="30" height="30" as="geometry" />
        </mxCell>
        <mxCell id="LJNIjv_O-m_A1Em3gIbu-45" value="C" style="ellipse;whiteSpace=wrap;html=1;aspect=fixed;fillColor=#d5e8d4;strokeColor=#82b366;" parent="1" vertex="1">
          <mxGeometry x="145" y="551" width="30" height="30" as="geometry" />
        </mxCell>
        <mxCell id="LJNIjv_O-m_A1Em3gIbu-46" value="D" style="ellipse;whiteSpace=wrap;html=1;aspect=fixed;fillColor=#ffe6cc;strokeColor=#d79b00;" parent="1" vertex="1">
          <mxGeometry x="225" y="239" width="30" height="30" as="geometry" />
        </mxCell>
        <mxCell id="LJNIjv_O-m_A1Em3gIbu-48" value="E" style="ellipse;whiteSpace=wrap;html=1;aspect=fixed;fillColor=#fff2cc;strokeColor=#d6b656;" parent="1" vertex="1">
          <mxGeometry x="265" y="551" width="30" height="30" as="geometry" />
        </mxCell>
        <mxCell id="LJNIjv_O-m_A1Em3gIbu-49" value="F1" style="ellipse;whiteSpace=wrap;html=1;aspect=fixed;fillColor=#f8cecc;strokeColor=#b85450;" parent="1" vertex="1">
          <mxGeometry x="305" y="239" width="30" height="30" as="geometry" />
        </mxCell>
        <mxCell id="LJNIjv_O-m_A1Em3gIbu-50" value="F2" style="ellipse;whiteSpace=wrap;html=1;aspect=fixed;fillColor=#f8cecc;strokeColor=#b85450;" parent="1" vertex="1">
          <mxGeometry x="305" y="209" width="30" height="30" as="geometry" />
        </mxCell>
        <mxCell id="LJNIjv_O-m_A1Em3gIbu-51" value="G" style="ellipse;whiteSpace=wrap;html=1;aspect=fixed;fillColor=#e1d5e7;strokeColor=#9673a6;" parent="1" vertex="1">
          <mxGeometry x="385" y="239" width="30" height="30" as="geometry" />
        </mxCell>
        <mxCell id="LJNIjv_O-m_A1Em3gIbu-52" value="F" style="ellipse;whiteSpace=wrap;html=1;aspect=fixed;fillColor=#f8cecc;strokeColor=#b85450;" parent="1" vertex="1">
          <mxGeometry x="345" y="551" width="30" height="30" as="geometry" />
        </mxCell>
        <mxCell id="LJNIjv_O-m_A1Em3gIbu-53" value="G1" style="ellipse;whiteSpace=wrap;html=1;aspect=fixed;fillColor=#e1d5e7;strokeColor=#9673a6;" parent="1" vertex="1">
          <mxGeometry x="425" y="551" width="30" height="30" as="geometry" />
        </mxCell>
        <mxCell id="LJNIjv_O-m_A1Em3gIbu-54" value="G2" style="ellipse;whiteSpace=wrap;html=1;aspect=fixed;fillColor=#e1d5e7;strokeColor=#9673a6;" parent="1" vertex="1">
          <mxGeometry x="425" y="521" width="30" height="30" as="geometry" />
        </mxCell>
        <mxCell id="u_NoSWsdKyC16Sh9KAaJ-1" value="&lt;b&gt;RESULT&lt;/b&gt;" style="text;html=1;align=center;verticalAlign=middle;whiteSpace=wrap;rounded=0;" parent="1" vertex="1">
          <mxGeometry x="20" y="710" width="60" height="30" as="geometry" />
        </mxCell>
        <mxCell id="u_NoSWsdKyC16Sh9KAaJ-2" value="" style="endArrow=classic;html=1;rounded=0;endFill=1;strokeWidth=3;" parent="1" edge="1">
          <mxGeometry width="50" height="50" relative="1" as="geometry">
            <mxPoint x="80" y="710" as="sourcePoint" />
            <mxPoint x="580" y="710" as="targetPoint" />
          </mxGeometry>
        </mxCell>
        <mxCell id="u_NoSWsdKyC16Sh9KAaJ-3" value="1" style="text;html=1;align=center;verticalAlign=middle;whiteSpace=wrap;rounded=0;" parent="1" vertex="1">
          <mxGeometry x="110" y="710" width="20" height="30" as="geometry" />
        </mxCell>
        <mxCell id="u_NoSWsdKyC16Sh9KAaJ-4" value="0" style="text;html=1;align=center;verticalAlign=middle;whiteSpace=wrap;rounded=0;" parent="1" vertex="1">
          <mxGeometry x="70" y="710" width="20" height="30" as="geometry" />
        </mxCell>
        <mxCell id="u_NoSWsdKyC16Sh9KAaJ-5" value="2" style="text;html=1;align=center;verticalAlign=middle;whiteSpace=wrap;rounded=0;" parent="1" vertex="1">
          <mxGeometry x="150" y="710" width="20" height="30" as="geometry" />
        </mxCell>
        <mxCell id="u_NoSWsdKyC16Sh9KAaJ-6" value="3" style="text;html=1;align=center;verticalAlign=middle;whiteSpace=wrap;rounded=0;" parent="1" vertex="1">
          <mxGeometry x="190" y="710" width="20" height="30" as="geometry" />
        </mxCell>
        <mxCell id="u_NoSWsdKyC16Sh9KAaJ-7" value="4" style="text;html=1;align=center;verticalAlign=middle;whiteSpace=wrap;rounded=0;" parent="1" vertex="1">
          <mxGeometry x="230" y="710" width="20" height="30" as="geometry" />
        </mxCell>
        <mxCell id="u_NoSWsdKyC16Sh9KAaJ-8" value="5" style="text;html=1;align=center;verticalAlign=middle;whiteSpace=wrap;rounded=0;" parent="1" vertex="1">
          <mxGeometry x="270" y="710" width="20" height="30" as="geometry" />
        </mxCell>
        <mxCell id="u_NoSWsdKyC16Sh9KAaJ-9" value="6" style="text;html=1;align=center;verticalAlign=middle;whiteSpace=wrap;rounded=0;" parent="1" vertex="1">
          <mxGeometry x="310" y="710" width="20" height="30" as="geometry" />
        </mxCell>
        <mxCell id="u_NoSWsdKyC16Sh9KAaJ-10" value="7" style="text;html=1;align=center;verticalAlign=middle;whiteSpace=wrap;rounded=0;" parent="1" vertex="1">
          <mxGeometry x="350" y="710" width="20" height="30" as="geometry" />
        </mxCell>
        <mxCell id="u_NoSWsdKyC16Sh9KAaJ-11" value="8" style="text;html=1;align=center;verticalAlign=middle;whiteSpace=wrap;rounded=0;" parent="1" vertex="1">
          <mxGeometry x="390" y="710" width="20" height="30" as="geometry" />
        </mxCell>
        <mxCell id="u_NoSWsdKyC16Sh9KAaJ-12" value="9" style="text;html=1;align=center;verticalAlign=middle;whiteSpace=wrap;rounded=0;" parent="1" vertex="1">
          <mxGeometry x="430" y="710" width="20" height="30" as="geometry" />
        </mxCell>
        <mxCell id="u_NoSWsdKyC16Sh9KAaJ-13" value="10" style="text;html=1;align=center;verticalAlign=middle;whiteSpace=wrap;rounded=0;" parent="1" vertex="1">
          <mxGeometry x="470" y="710" width="20" height="30" as="geometry" />
        </mxCell>
        <mxCell id="u_NoSWsdKyC16Sh9KAaJ-14" value="11" style="text;html=1;align=center;verticalAlign=middle;whiteSpace=wrap;rounded=0;" parent="1" vertex="1">
          <mxGeometry x="510" y="710" width="20" height="30" as="geometry" />
        </mxCell>
        <mxCell id="u_NoSWsdKyC16Sh9KAaJ-15" value="12" style="text;html=1;align=center;verticalAlign=middle;whiteSpace=wrap;rounded=0;" parent="1" vertex="1">
          <mxGeometry x="550" y="710" width="20" height="30" as="geometry" />
        </mxCell>
        <mxCell id="u_NoSWsdKyC16Sh9KAaJ-22" value="&lt;b&gt;&lt;font style=&quot;font-size: 15px;&quot;&gt;KStream-GlobalKTable Inner Join&lt;/font&gt;&lt;/b&gt;" style="text;html=1;align=center;verticalAlign=middle;whiteSpace=wrap;rounded=0;" parent="1" vertex="1">
          <mxGeometry x="40" y="170" width="250" height="30" as="geometry" />
        </mxCell>
        <mxCell id="u_NoSWsdKyC16Sh9KAaJ-24" value="C, C" style="rounded=1;whiteSpace=wrap;html=1;fillColor=#d5e8d4;strokeColor=#82b366;fontSize=11;" parent="1" vertex="1">
          <mxGeometry x="180.5" y="671" width="39" height="30" as="geometry" />
        </mxCell>
        <mxCell id="u_NoSWsdKyC16Sh9KAaJ-27" value="G, G1" style="rounded=1;whiteSpace=wrap;html=1;fillColor=#e1d5e7;strokeColor=#9673a6;fontSize=11;" parent="1" vertex="1">
          <mxGeometry x="420.5" y="671" width="39" height="30" as="geometry" />
        </mxCell>
        <mxCell id="u_NoSWsdKyC16Sh9KAaJ-28" value="G, G2" style="rounded=1;whiteSpace=wrap;html=1;fillColor=#e1d5e7;strokeColor=#9673a6;fontSize=11;" parent="1" vertex="1">
          <mxGeometry x="420.5" y="641" width="39" height="30" as="geometry" />
        </mxCell>
        <mxCell id="B4yupMI5Qt6oCv26n-zh-1" value="A, A" style="rounded=1;whiteSpace=wrap;html=1;fillColor=#f5f5f5;fontColor=#333333;strokeColor=#666666;fontSize=11;" parent="1" vertex="1">
          <mxGeometry x="60.5" y="671" width="39" height="30" as="geometry" />
        </mxCell>
        <mxCell id="xIhZ5N__d2qcfcNb0Meh-3" value="B, B" style="rounded=1;whiteSpace=wrap;html=1;fillColor=#dae8fc;strokeColor=#6c8ebf;fontSize=11;" parent="1" vertex="1">
          <mxGeometry x="100.5" y="671" width="39" height="30" as="geometry" />
        </mxCell>
        <mxCell id="xIhZ5N__d2qcfcNb0Meh-5" value="F1, F" style="rounded=1;whiteSpace=wrap;html=1;fillColor=#f8cecc;strokeColor=#b85450;fontSize=11;" parent="1" vertex="1">
          <mxGeometry x="300.5" y="671" width="39" height="30" as="geometry" />
        </mxCell>
        <mxCell id="xIhZ5N__d2qcfcNb0Meh-6" value="F2, F" style="rounded=1;whiteSpace=wrap;html=1;fillColor=#f8cecc;strokeColor=#b85450;fontSize=11;" parent="1" vertex="1">
          <mxGeometry x="300.5" y="641" width="39" height="30" as="geometry" />
        </mxCell>
        <mxCell id="s3AQ3x3ffBdiTEU-oynQ-462" value="" style="shape=table;startSize=0;container=1;collapsible=0;childLayout=tableLayout;fontSize=9;" parent="1" vertex="1">
          <mxGeometry x="70" y="335" width="21" height="186" as="geometry" />
        </mxCell>
        <mxCell id="s3AQ3x3ffBdiTEU-oynQ-463" value="" style="shape=tableRow;horizontal=0;startSize=0;swimlaneHead=0;swimlaneBody=0;strokeColor=inherit;top=0;left=0;bottom=0;right=0;collapsible=0;dropTarget=0;fillColor=none;points=[[0,0.5],[1,0.5]];portConstraint=eastwest;fontSize=16;" parent="s3AQ3x3ffBdiTEU-oynQ-462" vertex="1">
          <mxGeometry width="21" height="31" as="geometry" />
        </mxCell>
        <mxCell id="s3AQ3x3ffBdiTEU-oynQ-464" value="A" style="shape=partialRectangle;html=1;whiteSpace=wrap;connectable=0;strokeColor=inherit;overflow=hidden;fillColor=none;top=0;left=0;bottom=0;right=0;pointerEvents=1;fontSize=12;" parent="s3AQ3x3ffBdiTEU-oynQ-463" vertex="1">
          <mxGeometry width="21" height="31" as="geometry">
            <mxRectangle width="21" height="31" as="alternateBounds" />
          </mxGeometry>
        </mxCell>
        <mxCell id="s3AQ3x3ffBdiTEU-oynQ-465" style="shape=tableRow;horizontal=0;startSize=0;swimlaneHead=0;swimlaneBody=0;strokeColor=inherit;top=0;left=0;bottom=0;right=0;collapsible=0;dropTarget=0;fillColor=none;points=[[0,0.5],[1,0.5]];portConstraint=eastwest;fontSize=16;" parent="s3AQ3x3ffBdiTEU-oynQ-462" vertex="1">
          <mxGeometry y="31" width="21" height="31" as="geometry" />
        </mxCell>
        <mxCell id="s3AQ3x3ffBdiTEU-oynQ-466" value="C" style="shape=partialRectangle;html=1;whiteSpace=wrap;connectable=0;strokeColor=inherit;overflow=hidden;fillColor=none;top=0;left=0;bottom=0;right=0;pointerEvents=1;fontSize=12;" parent="s3AQ3x3ffBdiTEU-oynQ-465" vertex="1">
          <mxGeometry width="21" height="31" as="geometry">
            <mxRectangle width="21" height="31" as="alternateBounds" />
          </mxGeometry>
        </mxCell>
        <mxCell id="s3AQ3x3ffBdiTEU-oynQ-467" style="shape=tableRow;horizontal=0;startSize=0;swimlaneHead=0;swimlaneBody=0;strokeColor=inherit;top=0;left=0;bottom=0;right=0;collapsible=0;dropTarget=0;fillColor=none;points=[[0,0.5],[1,0.5]];portConstraint=eastwest;fontSize=16;" parent="s3AQ3x3ffBdiTEU-oynQ-462" vertex="1">
          <mxGeometry y="62" width="21" height="31" as="geometry" />
        </mxCell>
        <mxCell id="s3AQ3x3ffBdiTEU-oynQ-468" value="E" style="shape=partialRectangle;html=1;whiteSpace=wrap;connectable=0;strokeColor=inherit;overflow=hidden;fillColor=none;top=0;left=0;bottom=0;right=0;pointerEvents=1;fontSize=12;" parent="s3AQ3x3ffBdiTEU-oynQ-467" vertex="1">
          <mxGeometry width="21" height="31" as="geometry">
            <mxRectangle width="21" height="31" as="alternateBounds" />
          </mxGeometry>
        </mxCell>
        <mxCell id="s3AQ3x3ffBdiTEU-oynQ-469" style="shape=tableRow;horizontal=0;startSize=0;swimlaneHead=0;swimlaneBody=0;strokeColor=inherit;top=0;left=0;bottom=0;right=0;collapsible=0;dropTarget=0;fillColor=none;points=[[0,0.5],[1,0.5]];portConstraint=eastwest;fontSize=16;" parent="s3AQ3x3ffBdiTEU-oynQ-462" vertex="1">
          <mxGeometry y="93" width="21" height="31" as="geometry" />
        </mxCell>
        <mxCell id="s3AQ3x3ffBdiTEU-oynQ-470" value="F" style="shape=partialRectangle;html=1;whiteSpace=wrap;connectable=0;strokeColor=inherit;overflow=hidden;fillColor=none;top=0;left=0;bottom=0;right=0;pointerEvents=1;fontSize=12;" parent="s3AQ3x3ffBdiTEU-oynQ-469" vertex="1">
          <mxGeometry width="21" height="31" as="geometry">
            <mxRectangle width="21" height="31" as="alternateBounds" />
          </mxGeometry>
        </mxCell>
        <mxCell id="s3AQ3x3ffBdiTEU-oynQ-471" style="shape=tableRow;horizontal=0;startSize=0;swimlaneHead=0;swimlaneBody=0;strokeColor=inherit;top=0;left=0;bottom=0;right=0;collapsible=0;dropTarget=0;fillColor=none;points=[[0,0.5],[1,0.5]];portConstraint=eastwest;fontSize=16;" parent="s3AQ3x3ffBdiTEU-oynQ-462" vertex="1">
          <mxGeometry y="124" width="21" height="31" as="geometry" />
        </mxCell>
        <mxCell id="s3AQ3x3ffBdiTEU-oynQ-472" value="G2" style="shape=partialRectangle;html=1;whiteSpace=wrap;connectable=0;strokeColor=inherit;overflow=hidden;fillColor=none;top=0;left=0;bottom=0;right=0;pointerEvents=1;fontSize=12;" parent="s3AQ3x3ffBdiTEU-oynQ-471" vertex="1">
          <mxGeometry width="21" height="31" as="geometry">
            <mxRectangle width="21" height="31" as="alternateBounds" />
          </mxGeometry>
        </mxCell>
        <mxCell id="s3AQ3x3ffBdiTEU-oynQ-473" style="shape=tableRow;horizontal=0;startSize=0;swimlaneHead=0;swimlaneBody=0;strokeColor=inherit;top=0;left=0;bottom=0;right=0;collapsible=0;dropTarget=0;fillColor=none;points=[[0,0.5],[1,0.5]];portConstraint=eastwest;fontSize=16;" parent="s3AQ3x3ffBdiTEU-oynQ-462" vertex="1">
          <mxGeometry y="155" width="21" height="31" as="geometry" />
        </mxCell>
        <mxCell id="s3AQ3x3ffBdiTEU-oynQ-474" value="B" style="shape=partialRectangle;html=1;whiteSpace=wrap;connectable=0;strokeColor=inherit;overflow=hidden;fillColor=none;top=0;left=0;bottom=0;right=0;pointerEvents=1;fontSize=12;" parent="s3AQ3x3ffBdiTEU-oynQ-473" vertex="1">
          <mxGeometry width="21" height="31" as="geometry">
            <mxRectangle width="21" height="31" as="alternateBounds" />
          </mxGeometry>
        </mxCell>
      </root>
    </mxGraphModel>
  </diagram>
</mxfile>
